HIERARCHY
ROOT Pelvis
{
	OFFSET 0.000000 0.941512 0.000000
	CHANNELS 6 Xposition Yposition Zposition Zrotation Yrotation Xrotation 
	JOINT Pelvis_L_Hip
	{
		OFFSET 0.000000 0.000000 0.000000
		CHANNELS 3 Zrotation Yrotation Xrotation
		JOINT L_Hip
		{
			OFFSET 0.062321 -0.080322 -0.016990
			CHANNELS 3 Zrotation Yrotation Xrotation
			JOINT L_Knee
			{
				OFFSET 0.093051 -0.381305 -0.029784
				CHANNELS 3 Zrotation Yrotation Xrotation
				JOINT L_Ankle
				{
					OFFSET -0.010371 -0.431000 -0.033614
					CHANNELS 3 Zrotation Yrotation Xrotation
					End Site #name: L_Foot
					{
						OFFSET 0.069299 -0.038670 0.119418
					}
				}
			}
		}
	}
	JOINT Pelvis_R_Hip
	{
		OFFSET 0.000000 0.000000 0.000000
		CHANNELS 3 Zrotation Yrotation Xrotation
		JOINT R_Hip
		{
			OFFSET -0.055334 -0.094904 -0.002373
			CHANNELS 3 Zrotation Yrotation Xrotation
			JOINT R_Knee
			{
				OFFSET -0.064207 -0.384370 -0.019592
				CHANNELS 3 Zrotation Yrotation Xrotation
				JOINT R_Ankle
				{
					OFFSET 0.025418 -0.419734 -0.065953
					CHANNELS 3 Zrotation Yrotation Xrotation
					End Site #name: R_Foot
					{
						OFFSET -0.057233 -0.039888 0.132134
					}
				}
			}
		}
	}
	JOINT Pelvis_Spine1
	{
		OFFSET 0.000000 0.000000 0.000000
		CHANNELS 3 Zrotation Yrotation Xrotation
		JOINT Spine1
		{
			OFFSET -0.005562 0.124093 -0.043360
			CHANNELS 3 Zrotation Yrotation Xrotation
			JOINT Spine2
			{
				OFFSET 0.012244 0.139499 0.029894
				CHANNELS 3 Zrotation Yrotation Xrotation
				JOINT Spine3
				{
					OFFSET -0.002556 0.056561 0.009225
					CHANNELS 3 Zrotation Yrotation Xrotation
					JOINT Spine3_Neck
					{
						OFFSET 0.000000 0.000000 0.000000
						CHANNELS 3 Zrotation Yrotation Xrotation
						JOINT Neck
						{
							OFFSET -0.005205 0.217920 -0.024551
							CHANNELS 3 Zrotation Yrotation Xrotation
							End Site #name: Head
							{
								OFFSET 0.002365 0.091850 0.046637
							}
						}
					}
					JOINT Spine3_L_Collar
					{
						OFFSET 0.000000 0.000000 0.000000
						CHANNELS 3 Zrotation Yrotation Xrotation
						JOINT L_Collar
						{
							OFFSET 0.072225 0.116603 -0.009480
							CHANNELS 3 Zrotation Yrotation Xrotation
							JOINT L_Shoulder
							{
								OFFSET 0.115937 -0.058643 -0.021018
								CHANNELS 3 Zrotation Yrotation Xrotation
								JOINT L_Elbow
								{
									OFFSET 0.021994 -0.254722 -0.024492
									CHANNELS 3 Zrotation Yrotation Xrotation
									End Site #name: L_Wrist
									{
										OFFSET 0.048810 -0.240214 0.103329
									}
								}
							}
						}
					}
					JOINT Spine3_R_Collar
					{
						OFFSET 0.000000 0.000000 0.000000
						CHANNELS 3 Zrotation Yrotation Xrotation
						JOINT R_Collar
						{
							OFFSET -0.073372 0.120704 -0.024611
							CHANNELS 3 Zrotation Yrotation Xrotation
							JOINT R_Shoulder
							{
								OFFSET -0.108089 -0.054969 -0.020504
								CHANNELS 3 Zrotation Yrotation Xrotation
								JOINT R_Elbow
								{
									OFFSET -0.033684 -0.260739 0.009889
									CHANNELS 3 Zrotation Yrotation Xrotation
									End Site #name: R_Wrist
									{
										OFFSET -0.067980 -0.232763 0.118463
									}
								}
							}
						}
					}
				}
			}
		}
	}
}
MOTION
Frames: 11
Frame Time: 0.041667
0.000000 0.942632 0.000000 -4.280711 -5.355966 -5.232658 0.000000 0.000000 0.000000 2.820575 0.749327 4.165772 3.937288 -0.366861 0.758235 1.746814 9.202747 2.731291 0.000000 0.000000 0.000000 1.655348 -0.978068 5.062766 -1.372613 -0.070439 -3.814903 0.565657 -7.835344 7.459107 0.000000 0.000000 0.000000 0.943245 -0.526650 3.709540 0.544262 0.110144 4.775488 5.650549 3.847875 -1.643700 0.000000 0.000000 0.000000 -3.054190 1.488607 -5.777165 0.000000 0.000000 0.000000 2.089459 -7.024315 -3.381744 -15.922545 3.392492 7.951014 -2.646901 -30.024777 -73.839864 0.000000 0.000000 0.000000 -11.718665 16.055191 -8.251329 22.034598 -4.596947 16.635527 -17.648408 6.057291 -78.456338 
0.000461 0.942623 0.000423 -4.283232 -5.117459 -5.144378 0.000000 0.000000 0.000000 2.816345 0.727050 4.075337 3.930400 -0.359535 0.655294 1.660652 8.974133 2.729501 0.000000 0.000000 0.000000 1.659188 -0.976240 5.043209 -1.422535 -0.066802 -3.853208 0.519662 -7.988292 7.515104 0.000000 0.000000 0.000000 0.805972 -0.470497 3.429815 0.776471 0.074869 5.065726 5.645129 4.031901 -1.911316 0.000000 0.000000 0.000000 -3.147078 1.534911 -5.560451 0.000000 0.000000 0.000000 2.169948 -7.492995 -3.626219 -17.123811 3.303781 6.821448 -0.876354 -29.188892 -76.889242 0.000000 0.000000 0.000000 -11.484845 16.363918 -8.484306 23.721053 -4.338991 15.331753 -20.231839 0.524522 -78.607129 
0.000993 0.942626 0.000687 -4.251525 -4.894852 -5.105716 0.000000 0.000000 0.000000 2.764902 0.704397 3.960040 3.925512 -0.360214 0.687200 1.611087 8.798607 2.694701 0.000000 0.000000 0.000000 1.623057 -0.972471 5.035110 -1.461487 -0.060729 -3.839170 0.451511 -8.169609 7.542983 0.000000 0.000000 0.000000 0.711097 -0.426137 3.168273 0.953018 0.048325 5.316902 5.606815 4.064815 -2.154153 0.000000 0.000000 0.000000 -3.259111 1.589080 -5.217511 0.000000 0.000000 0.000000 2.208520 -8.280289 -4.051093 -17.755687 3.165286 5.910592 0.022552 -28.402007 -77.996950 0.000000 0.000000 0.000000 -11.319235 16.803455 -8.795377 24.597933 -4.157006 14.575671 -21.449786 -2.001250 -79.066328 
0.001541 0.942593 0.000816 -4.140509 -4.724798 -5.083772 0.000000 0.000000 0.000000 2.612685 0.685802 3.815335 3.929345 -0.367393 0.814126 1.599734 8.700030 2.642171 0.000000 0.000000 0.000000 1.474643 -0.956211 5.017088 -1.451453 -0.059622 -3.811367 0.381652 -8.334793 7.545822 0.000000 0.000000 0.000000 0.591590 -0.378368 2.935958 1.096951 0.025950 5.515890 5.528918 3.961271 -2.399324 0.000000 0.000000 0.000000 -3.372079 1.642672 -4.823313 0.000000 0.000000 0.000000 2.118038 -9.187474 -4.554652 -17.826082 3.051262 5.437204 0.262246 -27.746810 -77.693150 0.000000 0.000000 0.000000 -11.102226 17.203140 -9.068296 24.795190 -4.077077 14.308781 -21.460726 -1.839660 -79.764597 
0.002018 0.942505 0.000969 -3.993573 -4.648400 -5.058667 0.000000 0.000000 0.000000 2.408001 0.679412 3.699492 3.949535 -0.376083 0.934941 1.616087 8.677093 2.591900 0.000000 0.000000 0.000000 1.254636 -0.930924 4.987304 -1.385118 -0.066081 -3.792452 0.338527 -8.421584 7.529126 0.000000 0.000000 0.000000 0.433995 -0.323535 2.726694 1.251056 -0.000695 5.670617 5.449016 3.829717 -2.646174 0.000000 0.000000 0.000000 -3.504104 1.704108 -4.473495 0.000000 0.000000 0.000000 1.946245 -9.861346 -4.936332 -17.651047 2.998469 5.339212 0.093157 -27.470237 -76.863642 0.000000 0.000000 0.000000 -10.817828 17.436738 -9.221180 24.519988 -4.093336 14.465149 -20.825733 -0.203244 -80.497853 
0.002345 0.942399 0.001298 -3.920307 -4.711268 -5.118609 0.000000 0.000000 0.000000 2.284872 0.714302 3.795681 3.983035 -0.379600 0.941267 1.642085 8.703917 2.561011 0.000000 0.000000 0.000000 1.103955 -0.928318 5.055769 -1.312377 -0.074206 -3.782406 0.355884 -8.349388 7.495496 0.000000 0.000000 0.000000 0.327718 -0.291327 2.644382 1.368795 -0.022917 5.735911 5.438361 3.817108 -2.776069 0.000000 0.000000 0.000000 -3.641416 1.767463 -4.292300 0.000000 0.000000 0.000000 1.889910 -9.905670 -4.964737 -17.613640 2.973898 5.265620 -0.251757 -27.638630 -76.242099 0.000000 0.000000 0.000000 -10.657104 17.454756 -9.229054 24.049792 -4.122555 14.699997 -20.186526 1.438486 -81.023882 
0.002527 0.942348 0.001785 -3.986895 -4.913142 -5.373799 0.000000 0.000000 0.000000 2.331817 0.813196 4.238338 4.015427 -0.374845 0.803057 1.666512 8.753776 2.551241 0.000000 0.000000 0.000000 1.126565 -0.979513 5.349562 -1.299129 -0.076335 -3.785538 0.446188 -8.098971 7.458848 0.000000 0.000000 0.000000 0.374705 -0.312038 2.772889 1.361272 -0.020841 5.738583 5.514658 3.970438 -2.709718 0.000000 0.000000 0.000000 -3.747527 1.816555 -4.271054 0.000000 0.000000 0.000000 2.123596 -9.331127 -4.633621 -17.805564 2.941599 5.020458 -0.539785 -28.083859 -76.145022 0.000000 0.000000 0.000000 -10.817770 17.424220 -9.209792 23.588819 -4.095874 14.750145 -19.875657 2.263619 -81.399308 
0.002643 0.942339 0.002159 -4.142533 -5.175885 -5.756770 0.000000 0.000000 0.000000 2.500830 0.936652 4.841366 4.019583 -0.366804 0.650641 1.706518 8.833041 2.532251 0.000000 0.000000 0.000000 1.270773 -1.063694 5.769615 -1.337324 -0.071375 -3.774239 0.560313 -7.789996 7.421612 0.000000 0.000000 0.000000 0.577810 -0.375734 2.980630 1.206303 0.015526 5.822181 5.598393 4.155211 -2.544477 0.000000 0.000000 0.000000 -3.798435 1.840582 -4.287381 0.000000 0.000000 0.000000 2.554299 -8.736392 -4.271915 -17.938201 2.907327 4.797108 -0.794659 -28.693135 -76.363325 0.000000 0.000000 0.000000 -11.250851 17.588616 -9.325477 23.208494 -4.035781 14.664185 -19.616119 3.104586 -81.966634 
0.002670 0.942312 0.002149 -4.265836 -5.409107 -6.105778 0.000000 0.000000 0.000000 2.661058 1.031632 5.320220 3.978476 -0.360607 0.596472 1.772427 8.946724 2.486264 0.000000 0.000000 0.000000 1.393137 -1.131057 6.100874 -1.372104 -0.062793 -3.706943 0.642269 -7.542797 7.368550 0.000000 0.000000 0.000000 0.789931 -0.434625 3.103715 1.034028 0.061361 6.045690 5.591251 4.187274 -2.429028 0.000000 0.000000 0.000000 -3.841479 1.860010 -4.284349 0.000000 0.000000 0.000000 2.875517 -8.803079 -4.281823 -17.776744 2.891117 4.799209 -1.514631 -29.920337 -76.260772 0.000000 0.000000 0.000000 -11.633464 18.071303 -9.655974 22.894036 -4.057993 14.821403 -18.558383 6.154266 -83.252722 
0.002495 0.942223 0.001576 -4.302645 -5.565809 -6.243001 0.000000 0.000000 0.000000 2.751038 1.048532 5.429346 3.888958 -0.359162 0.697126 1.862520 9.100848 2.421191 0.000000 0.000000 0.000000 1.430288 -1.135515 6.112736 -1.355982 -0.053035 -3.539715 0.658576 -7.427354 7.287061 0.000000 0.000000 0.000000 0.858476 -0.445691 3.057762 0.973528 0.085188 6.302613 5.519127 4.013176 -2.435967 0.000000 0.000000 0.000000 -3.916090 1.890467 -4.352499 0.000000 0.000000 0.000000 2.787409 -9.718332 -4.797166 -17.500683 2.905454 4.975599 -3.093036 -31.977101 -75.328420 0.000000 0.000000 0.000000 -11.692515 18.813204 -10.157325 22.591802 -4.188555 15.317116 -16.264026 12.893534 -85.030922 
0.002098 0.942135 0.000474 -4.297716 -5.659850 -6.149076 0.000000 0.000000 0.000000 2.803145 0.986640 5.179251 3.789832 -0.363349 0.915431 1.938730 9.248613 2.378905 0.000000 0.000000 0.000000 1.441223 -1.081646 5.796647 -1.305554 -0.041907 -3.294212 0.634655 -7.410890 7.205714 0.000000 0.000000 0.000000 0.742668 -0.408643 2.947444 0.997393 0.084980 6.417634 5.515679 3.791295 -2.543685 0.000000 0.000000 0.000000 -3.956408 1.899791 -4.641271 0.000000 0.000000 0.000000 2.288103 -10.906871 -5.488590 -17.617190 2.952554 5.052782 -4.969789 -34.074503 -73.940232 0.000000 0.000000 0.000000 -11.524224 19.623440 -10.700384 22.553086 -4.258105 15.573448 -13.490902 20.836842 -85.997547 
